
<?xml version="1.0" encoding="utf-8"?>
<svg xmlns="http://www.w3.org/2000/svg" xmlns:xlink="http://www.w3.org/1999/xlink">
	<symbol xmlns="http://www.w3.org/2000/svg" id="vkShare" width="48" height="48" viewBox="0 0 48 48">
		<g fill-rule="nonzero" fill="none">
			<path d="M0 23.04C0 12.179 0 6.748 3.374 3.374 6.748 0 12.18 0 23.04 0h1.92c10.861 0 16.292 0 19.666 3.374C48 6.748 48 12.18 48 23.04v1.92c0 10.861 0 16.292-3.374 19.666C41.252 48 35.82 48 24.96 48h-1.92c-10.861 0-16.292 0-19.666-3.374C0 41.252 0 35.82 0 24.96v-1.92z" fill="#07F"/>
			<path d="M25.54 34.58c-10.94 0-17.18-7.5-17.44-19.98h5.48c.18 9.16 4.22 13.04 7.42 13.84V14.6h5.16v7.9c3.16-.34 6.48-3.94 7.6-7.9h5.16c-.86 4.88-4.46 8.48-7.02 9.96 2.56 1.2 6.66 4.34 8.22 10.02h-5.68c-1.22-3.8-4.26-6.74-8.28-7.14v7.14h-.62z" fill="#FFF"/>
		</g>
	</symbol>
	<symbol xmlns="http://www.w3.org/2000/svg" id="vkShareFloatbar" width="40" height="40" viewBox="0 0 40 40" >
		<g fill="none" fill-rule="evenodd">
			<circle fill="#4680C2" cx="20" cy="20" r="20"/>
			<path d="M31.412 14.04c.185-.586 0-1.013-.821-1.013h-2.727c-.689 0-1.006.373-1.192.774 0 0-1.403 3.416-3.362 5.631-.636.641-.927.854-1.271.854-.185 0-.424-.213-.424-.8v-5.472c0-.694-.212-1.014-.794-1.014h-4.29c-.423 0-.688.32-.688.64 0 .668.98.828 1.086 2.696v4.057c0 .881-.159 1.041-.503 1.041-.927 0-3.177-3.443-4.528-7.366-.265-.774-.53-1.068-1.218-1.068H7.927c-.795 0-.927.374-.927.774 0 .72.927 4.35 4.316 9.155 2.25 3.283 5.454 5.044 8.34 5.044 1.747 0 1.96-.4 1.96-1.067v-2.483c0-.8.158-.934.714-.934.397 0 1.112.214 2.727 1.789C26.911 27.146 27.228 28 28.261 28h2.727c.794 0 1.165-.4.953-1.174-.238-.774-1.138-1.895-2.303-3.23-.636-.747-1.589-1.575-1.88-1.975-.397-.534-.291-.747 0-1.228-.027 0 3.31-4.75 3.654-6.352" fill="#FFF"/>
		</g>
	</symbol>
	<symbol xmlns="http://www.w3.org/2000/svg" id="vkShareBottom" width="50" height="50" viewBox="0 0 50 50">
		<g fill="none" fill-rule="evenodd">
			<circle fill="#4680C2" cx="25" cy="25" r="25"/>
			<path d="M35.59 18.027h-2.726c-.689 0-1.006.373-1.192.774 0 0-1.403 3.416-3.362 5.631-.636.641-.927.854-1.271.854-.185 0-.424-.213-.424-.8v-5.472c0-.694-.212-1.014-.794-1.014h-4.29c-.423 0-.688.32-.688.64 0 .668.98.828 1.086 2.696v4.057c0 .881-.159 1.041-.503 1.041-.927 0-3.177-3.443-4.528-7.366-.265-.774-.53-1.068-1.218-1.068h-2.753c-.795 0-.927.374-.927.774 0 .72.927 4.35 4.316 9.155 2.25 3.283 5.454 5.044 8.34 5.044 1.747 0 1.96-.4 1.96-1.067v-2.483c0-.8.158-.934.714-.934.397 0 1.112.214 2.727 1.789C31.911 32.146 32.228 33 33.261 33h2.727c.794 0 1.165-.4.953-1.174-.238-.774-1.138-1.895-2.303-3.23-.636-.747-1.589-1.575-1.88-1.975-.397-.534-.291-.747 0-1.228-.027 0 3.31-4.75 3.654-6.352.185-.587 0-1.014-.821-1.014z" fill="#FFF"/>
		</g>
	</symbol>
	<symbol xmlns="http://www.w3.org/2000/svg" id="vk" viewBox="0 0 23 13">
		<path fill-rule="evenodd" d="M19.106 6.374s3.03-4.127 3.332-5.483c.1-.484-.12-.755-.642-.755h-2.63c-.601 0-.822.251-1.003.62 0 0-1.421 2.923-3.15 4.766-.556.595-.838.775-1.145.775-.247 0-.361-.2-.361-.737V.852c0-.658-.08-.852-.642-.852H8.65c-.321 0-.522.18-.522.426 0 .62.984.76.984 2.441v3.468c0 .698-.04.969-.382.969-.903 0-3.05-3.003-4.254-6.413C4.235.194 3.974 0 3.29 0H.662C.281 0 0 .252 0 .62c0 .678.823 3.817 4.054 8.02C6.222 11.47 9.071 13 11.64 13c1.566 0 1.947-.252 1.947-.891v-2.17c0-.543.221-.775.542-.775.361 0 .999.112 2.489 1.53C18.384 12.322 18.504 13 19.468 13h2.95c.301 0 .582-.136.582-.62 0-.64-.863-1.782-2.188-3.139-.542-.697-1.425-1.453-1.706-1.801-.401-.407-.28-.64 0-1.066" />
	</symbol>
	<symbol id="vk-with-frame" width="24" height="24" viewBox="0 0 24 24" xmlns="http://www.w3.org/2000/svg">
		<path d="M22.313 1.687c1.6 1.6 1.683 4.127 1.687 9.019v2.588c-.004 4.892-.087 7.418-1.687 9.019-1.6 1.6-4.127 1.683-9.019 1.687h-2.588c-4.892-.004-7.418-.087-9.019-1.687C.13 20.756.01 18.323.001 13.686v-3.372C.01 5.678.13 3.244 1.687 1.687 3.244.13 5.677.01 10.314.001h3.372c4.636.009 7.07.129 8.627 1.686zM6.79 7.3H4.05c.13 6.24 3.25 9.99 8.72 9.99h.31v-3.57c2.01.2 3.53 1.67 4.14 3.57h2.84c-.78-2.84-2.83-4.41-4.11-5.01 1.28-.74 3.08-2.54 3.51-4.98h-2.58c-.56 1.98-2.22 3.78-3.8 3.95V7.3H10.5v6.92c-1.6-.4-3.62-2.34-3.71-6.92z"
			  fill-rule="nonzero"
		/>
	</symbol>
	<symbol xmlns="http://www.w3.org/2000/svg" id="tw" viewBox="0 0 19 16">
		<path fill-rule="evenodd" d="M18.958 1.946a7.572 7.572 0 0 1-2.234.634 4.015 4.015 0 0 0 1.71-2.227 7.632 7.632 0 0 1-2.47.977A3.825 3.825 0 0 0 13.125.059c-2.148 0-3.89 1.802-3.89 4.024 0 .316.035.623.101.917C6.104 4.833 3.238 3.23 1.32.796a4.112 4.112 0 0 0-.527 2.023c0 1.396.687 2.628 1.73 3.35a3.775 3.775 0 0 1-1.761-.504v.05c0 1.95 1.34 3.577 3.12 3.947a3.775 3.775 0 0 1-1.757.069c.495 1.598 1.931 2.762 3.633 2.795A7.64 7.64 0 0 1 0 14.192 10.743 10.743 0 0 0 5.962 16c7.154 0 11.066-6.132 11.066-11.45 0-.175-.004-.348-.011-.52a8.063 8.063 0 0 0 1.94-2.084" />
	</symbol>
	<symbol xmlns="http://www.w3.org/2000/svg" id="ok" viewBox="0 0 13 22">
		<defs>
			<path id="a" d="M0 .082h12.833V22H0" />
			<path id="c" d="M0 .082h12.833V22H0z" />
		</defs>
		<g fill-rule="evenodd">
			<g>
				<mask id="b" fill="#fff">
					<use href="#a" />
				</mask>
				<path d="M6.416 3.397c1.306 0 2.368 1.05 2.368 2.342 0 1.29-1.062 2.341-2.368 2.341-1.304 0-2.367-1.05-2.367-2.34 0-1.292 1.063-2.343 2.367-2.343m0 7.997c3.154 0 5.718-2.536 5.718-5.655 0-3.12-2.564-5.657-5.718-5.657C3.263.082.7 2.619.7 5.739c0 3.119 2.564 5.655 5.717 5.655" mask="url(#b)" />
			</g>
			<g>
				<mask id="d" fill="#fff">
					<use href="#c" />
				</mask>
				<path d="M8.73 16.009a10.765 10.765 0 0 0 3.32-1.361 1.647 1.647 0 0 0 .525-2.285 1.685 1.685 0 0 0-2.31-.521 7.326 7.326 0 0 1-7.698 0 1.684 1.684 0 0 0-2.31.52 1.647 1.647 0 0 0 .526 2.286 10.778 10.778 0 0 0 3.32 1.36L.906 19.172a1.645 1.645 0 0 0 0 2.344A1.68 1.68 0 0 0 2.092 22c.429 0 .858-.162 1.185-.485l3.14-3.108 3.142 3.108a1.687 1.687 0 0 0 2.368 0 1.643 1.643 0 0 0 0-2.344L8.73 16.01z" mask="url(#d)" />
			</g>
		</g>
	</symbol>
	<symbol xmlns="http://www.w3.org/2000/svg" id="telegramShare" width="48" height="48" viewBox="0 0 48 48">
		<defs>
			<linearGradient x1="50%" y1="0%" x2="50%" y2="99.258%" id="15puccbl5a">
				<stop stop-color="#2AABEE" offset="0%"/>
				<stop stop-color="#229ED9" offset="100%"/>
			</linearGradient>
		</defs>
		<g fill-rule="nonzero" fill="none">
			<circle fill="url(#15puccbl5a)" cx="24" cy="24" r="24"/>
			<path d="M10.864 23.747c6.996-3.049 11.662-5.058 13.996-6.03 6.665-2.771 8.05-3.253 8.953-3.269.198-.003.642.046.93.28.243.196.31.462.341.65.032.186.072.611.04.944-.36 3.795-1.924 13.004-2.719 17.255-.336 1.798-.999 2.401-1.64 2.46-1.394.129-2.452-.92-3.802-1.806-2.112-1.384-3.305-2.246-5.356-3.597-2.37-1.562-.833-2.42.517-3.823.354-.367 6.494-5.952 6.613-6.459.015-.063.029-.3-.111-.424-.14-.125-.348-.082-.497-.048-.212.048-3.587 2.278-10.124 6.69-.958.658-1.825.979-2.602.962-.857-.018-2.506-.484-3.731-.883-1.503-.488-2.698-.747-2.594-1.576.054-.433.65-.875 1.786-1.326z" fill="#FFF"/>
		</g>
	</symbol>
	<symbol xmlns="http://www.w3.org/2000/svg" id="telegramShareFloatbar" width="40" height="40" viewBox="0 0 40 40">
		<g fill="none" fill-rule="evenodd">
			<path d="M40 20c0 11.046-8.954 20-20 20S0 31.046 0 20 8.954 0 20 0s20 8.954 20 20" fill="#37AEE2"/>
			<path d="m16.32 27.42 3.145-2.52 4.257 2.896c.762.417 1.31.2 1.5-.702l2.716-12.714c.278-1.107-.425-1.61-1.153-1.28L10.84 19.207c-1.088.433-1.082 1.037-.198 1.305l3.97 1.465 9.594-6.133c.448-.27.858-.125.521.172l-8.406 6.868v4.535z" fill="#FFF"/>
		</g>
	</symbol>
	<symbol xmlns="http://www.w3.org/2000/svg" id="telegramShareBottom" width="50" height="50" viewBox="0 0 50 50">
		<g fill="none" fill-rule="evenodd">
			<path d="M50 25c0 13.807-11.193 25-25 25S0 38.807 0 25 11.193 0 25 0s25 11.193 25 25" fill="#37AEE2"/>
			<path d="m20.726 34.265 3.843-3.192 5.203 3.668c.93.529 1.602.255 1.833-.89l3.319-16.102c.34-1.403-.52-2.04-1.41-1.623l-19.487 7.737c-1.33.55-1.322 1.314-.242 1.654l4.851 1.856 11.727-7.77c.547-.341 1.049-.158.637.219l-10.274 8.7v5.743z" fill="#FFF"/>
		</g>
	</symbol>
	<symbol xmlns="http://www.w3.org/2000/svg" id="telegram" viewBox="0 0 24 19">
		<g fill-rule="evenodd">
			<path d="M9 18.32c.533 0 .769-.238 1.067-.521l2.844-2.706-3.823-2.533" />
			<path d="M9.088 12.562l8.598 6.213c.98.53 1.689.256 1.933-.89l3.5-16.133C23.477.346 22.57-.291 21.633.126L1.083 7.877C-.32 8.427-.31 9.193.827 9.534l5.274 1.61L18.309 3.61c.577-.342 1.106-.158.672.219" />
		</g>
	</symbol>
	<symbol xmlns="http://www.w3.org/2000/svg" id="telegram-white" viewBox="0 0 24 19">
		<g fill-rule="evenodd">
			<path fill="#ffffff" d="M8.844 18.522c-.69 0-.573-.256-.812-.9L6 11.08 21.644 2" />
			<path d="M9 18.32c.533 0 .769-.238 1.067-.521l2.844-2.706-3.823-2.533" />
			<path d="M9.088 12.562l8.598 6.213c.98.53 1.689.256 1.933-.89l3.5-16.133C23.477.346 22.57-.291 21.633.126L1.083 7.877C-.32 8.427-.31 9.193.827 9.534l5.274 1.61L18.309 3.61c.577-.342 1.106-.158.672.219" />
		</g>
	</symbol>
	<symbol id="google" width="20" height="20" viewBox="0 0 20 20" xmlns="http://www.w3.org/2000/svg">
		<g fill="none" fill-rule="evenodd">
			<path d="M19.6 10.227c0-.709-.064-1.39-.182-2.045H10v3.868h5.382a4.6 4.6 0 0 1-1.996 3.018v2.51h3.232c1.891-1.742 2.982-4.305 2.982-7.35z" fill="var(--fill-blue-color)" fill-rule="nonzero"/>
			<path d="M10 20c2.7 0 4.964-.895 6.618-2.423l-3.232-2.509c-.895.6-2.04.955-3.386.955-2.605 0-4.81-1.76-5.595-4.123H1.064v2.59A9.996 9.996 0 0 0 10 20z" fill="var(--fill-green-color)" fill-rule="nonzero"/>
			<path d="M4.405 11.9c-.2-.6-.314-1.24-.314-1.9 0-.66.114-1.3.314-1.9V5.51H1.064A9.996 9.996 0 0 0 0 10c0 1.614.386 3.14 1.064 4.49l3.34-2.59z" fill="var(--fill-yellow-color)" fill-rule="nonzero"/>
			<path d="M10 3.977c1.468 0 2.786.505 3.823 1.496l2.868-2.868C14.959.99 12.695 0 10 0 6.09 0 2.71 2.24 1.064 5.51l3.34 2.59C5.192 5.736 7.396 3.977 10 3.977z" fill="var(--fill-red-color)" fill-rule="nonzero"/>
			<path d="M0 0h20v20H0z"/>
		</g>
	</symbol>
	<symbol viewBox="0 0 243 244" id="pinterest" xmlns="http://www.w3.org/2000/svg" xmlns:xlink="http://www.w3.org/1999/xlink">
		<g>
			<path d="M121.5,0 C54.4,0 0,54.4 0,121.5 C0,173 32,217 77.2,234.7 C76.1,225.1 75.2,210.3 77.6,199.8 C79.8,190.3 91.8,139.4 91.8,139.4 C91.8,139.4 88.2,132.1 88.2,121.4 C88.2,104.5 98,91.9 110.2,91.9 C120.6,91.9 125.6,99.7 125.6,109 C125.6,119.4 119,135 115.5,149.5 C112.6,161.6 121.6,171.5 133.5,171.5 C155.1,171.5 171.7,148.7 171.7,115.9 C171.7,86.8 150.8,66.5 120.9,66.5 C86.3,66.5 66,92.4 66,119.2 C66,129.6 70,140.8 75,146.9 C76,148.1 76.1,149.2 75.8,150.4 C74.9,154.2 72.8,162.5 72.4,164.2 C71.9,166.4 70.6,166.9 68.3,165.8 C53.1,158.7 43.6,136.6 43.6,118.7 C43.6,80.4 71.4,45.2 123.9,45.2 C166,45.2 198.8,75.2 198.8,115.4 C198.8,157.3 172.4,191 135.8,191 C123.5,191 111.9,184.6 108,177 C108,177 101.9,200.2 100.4,205.9 C97.7,216.5 90.3,229.7 85.3,237.8 C96.7,241.3 108.7,243.2 121.3,243.2 C188.4,243.2 242.8,188.8 242.8,121.7 C243,54.4 188.6,0 121.5,0 Z" id="Path">
			</path>
		</g>
	</symbol>
	<symbol xmlns="http://www.w3.org/2000/svg" id="viberShare" width="50" height="53" viewBox="0 0 50 53">
		<g fill="none" fill-rule="evenodd">
			<path d="M44.356 5.17C43.046 3.954 37.752.09 25.96.038c0 0-13.907-.843-20.687 5.408C1.5 9.241.171 14.793.031 21.676c-.14 6.884-.321 19.785 12.048 23.282h.012l-.008 5.338s-.079 2.16 1.337 2.601c1.712.535 2.716-1.107 4.351-2.878.897-.972 2.136-2.4 3.07-3.49 8.46.715 14.966-.92 15.705-1.163 1.708-.556 11.373-1.801 12.945-14.7C51.114 17.37 48.707 8.96 44.356 5.17z" fill="#FFF" fill-rule="nonzero"/>
			<path d="M41.605 7.855c-1.107-1.011-5.888-4.031-15.864-4.075 0 0-11.813-.78-17.547 4.441C5.003 11.39 3.927 16.1 3.81 21.848c-.117 5.75-.728 16.731 9.732 19.652 0 0-.041 8.153-.046 8.87 0 .5.079.844.364.914.205.05.512-.056.773-.318 1.672-1.688 7.027-8.182 7.027-8.182 7.184.472 12.9-.954 13.515-1.156 1.45-.469 9.289-1.146 10.616-11.92 1.37-11.105-.504-18.685-4.185-21.853z" fill="#7360F2" fill-rule="nonzero"/>
			<path d="M30.813 21.376c-.13-2.63-1.458-4.01-3.986-4.143" stroke="#FFF" stroke-width="1.346" stroke-linecap="round" stroke-linejoin="round"/>
			<path d="M34.235 22.53c.053-2.45-.67-4.497-2.166-6.14-1.503-1.65-3.583-2.559-6.254-2.755" stroke="#FFF" stroke-width="1.346" stroke-linecap="round" stroke-linejoin="round"/>
			<path d="M37.738 23.907c-.032-4.251-1.296-7.599-3.79-10.044-2.495-2.445-5.598-3.68-9.308-3.706" stroke="#FFF" stroke-width="1.346" stroke-linecap="round" stroke-linejoin="round"/>
			<path d="M26.96 30.356s.937.08 1.442-.545l.984-1.245c.475-.617 1.62-1.011 2.742-.383a28.99 28.99 0 0 1 2.445 1.57c.745.55 2.27 1.83 2.274 1.83.727.616.894 1.521.4 2.475 0 .006-.004.015-.004.02a10.314 10.314 0 0 1-2.048 2.536c-.01.005-.01.01-.019.014-.705.593-1.399.93-2.08 1.011-.1.018-.202.024-.303.02-.3.002-.6-.044-.885-.138l-.022-.032c-1.05-.298-2.8-1.042-5.718-2.66a34.035 34.035 0 0 1-4.804-3.19 25.226 25.226 0 0 1-2.16-1.926l-.073-.073-.073-.074-.073-.073-.072-.073a25.274 25.274 0 0 1-1.917-2.172 34.282 34.282 0 0 1-3.173-4.829c-1.61-2.933-2.35-4.692-2.645-5.748l-.033-.022a2.797 2.797 0 0 1-.135-.89c-.006-.102 0-.204.018-.305.085-.683.42-1.381 1.007-2.093.005-.008.01-.008.014-.018a10.259 10.259 0 0 1 2.523-2.058c.004 0 .014-.005.02-.005.949-.497 1.85-.328 2.461.398.005.005 1.275 1.537 1.82 2.286a29.183 29.183 0 0 1 1.562 2.46c.625 1.127.233 2.281-.38 2.757l-1.239.99c-.625.507-.543 1.45-.543 1.45s1.834 6.977 8.686 8.735z" fill="#FFF" fill-rule="nonzero"/>
		</g>
	</symbol>
	<symbol id="viber" xmlns="http://www.w3.org/2000/svg" viewBox="0 0 670 670">
		<path d="M560.65,65C544.09,49.72,477.17,1.14,328.11.48c0,0-175.78-10.6-261.47,68C18.94,116.19,2.16,186,.39,272.55S-3.67,521.3,152.68,565.28l.15,0-.1,67.11s-1,27.17,16.89,32.71c21.64,6.72,34.34-13.93,55-36.19,11.34-12.22,27-30.17,38.8-43.89,106.93,9,189.17-11.57,198.51-14.61,21.59-7,143.76-22.66,163.63-184.84C646.07,218.4,615.64,112.66,560.65,65Zm18.12,308.58C562,509,462.91,517.51,444.64,523.37c-7.77,2.5-80,20.47-170.83,14.54,0,0-67.68,81.65-88.82,102.88-3.3,3.32-7.18,4.66-9.77,4-3.64-.89-4.64-5.2-4.6-11.5.06-9,.58-111.52.58-111.52s-.08,0,0,0C38.94,485.05,46.65,347,48.15,274.71S63.23,143.2,103.57,103.37c72.48-65.65,221.79-55.84,221.79-55.84,126.09.55,186.51,38.52,200.52,51.24C572.4,138.6,596.1,233.91,578.77,373.54Z" />
		<path d="M389.47,268.77q-2.46-49.59-50.38-52.09" />
		<path d="M432.72,283.27q1-46.2-27.37-77.2c-19-20.74-45.3-32.16-79.05-34.63" />
		<path d="M477,300.59q-.61-80.17-47.91-126.28t-117.65-46.6" />
		<path d="M340.76,381.68s11.85,1,18.23-6.86l12.44-15.65c6-7.76,20.48-12.71,34.66-4.81A366.67,366.67,0,0,1,437,374.1c9.41,6.92,28.68,23,28.74,23,9.18,7.75,11.3,19.13,5.05,31.13,0,.07-.05.19-.05.25a129.81,129.81,0,0,1-25.89,31.88c-.12.06-.12.12-.23.18q-13.38,11.18-26.29,12.71a17.39,17.39,0,0,1-3.84.24,35,35,0,0,1-11.18-1.72l-.28-.41c-13.26-3.74-35.4-13.1-72.27-33.44a430.39,430.39,0,0,1-60.72-40.11,318.31,318.31,0,0,1-27.31-24.22l-.92-.92-.92-.92h0l-.92-.92c-.31-.3-.61-.61-.92-.92a318.31,318.31,0,0,1-24.22-27.31,430.83,430.83,0,0,1-40.11-60.71c-20.34-36.88-29.7-59-33.44-72.28l-.41-.28a35,35,0,0,1-1.71-11.18,16.87,16.87,0,0,1,.23-3.84Q141,181.42,152.12,168c.06-.11.12-.11.18-.23a129.53,129.53,0,0,1,31.88-25.88c.06,0,.18-.06.25-.06,12-6.25,23.38-4.13,31.12,5,.06.06,16.11,19.33,23,28.74a366.67,366.67,0,0,1,19.74,30.94c7.9,14.17,2.95,28.68-4.81,34.66l-15.65,12.44c-7.9,6.38-6.86,18.23-6.86,18.23S254.15,359.57,340.76,381.68Z" />
	</symbol>
	<symbol id="zen" xmlns="http://www.w3.org/2000/svg" width="24" height="24" viewBox="0 0 24 24">
		<g fill-rule="evenodd">
			<g>
				<g>
					<path fill="#1c1c1c" fill-rule="nonzero" d="M0 12C0 5.373 5.373 0 12 0s12 5.373 12 12-5.373 12-12 12S0 18.627 0 12z" transform="translate(-153.000000, -569.000000) translate(153.000000, 569.000000)"/>
					<path d="M11.757 0c-.057 4.937-.38 7.7-2.218 9.539C7.699 11.378 4.937 11.7 0 11.757v.717c4.937.056 7.7.38 9.539 2.218 1.81 1.81 2.151 4.515 2.215 9.308h.722c.065-4.793.406-7.498 2.216-9.308 1.81-1.81 4.515-2.151 9.308-2.216v-.722c-4.793-.064-7.498-.405-9.308-2.215C12.853 7.699 12.53 4.937 12.474 0h-.717z" transform="translate(-153.000000, -569.000000) translate(153.000000, 569.000000)"/>
				</g>
			</g>
		</g>
	</symbol>
	<symbol id="zen_grey" xmlns="http://www.w3.org/2000/svg" width="24" height="24" viewBox="0 0 24 24">
		<g fill-rule="evenodd">
			<g>
				<g>
					<path fill="#bbbbbb" fill-rule="nonzero" d="M0 12C0 5.373 5.373 0 12 0s12 5.373 12 12-5.373 12-12 12S0 18.627 0 12z" transform="translate(-153.000000, -569.000000) translate(153.000000, 569.000000)"/>
					<path d="M11.757 0c-.057 4.937-.38 7.7-2.218 9.539C7.699 11.378 4.937 11.7 0 11.757v.717c4.937.056 7.7.38 9.539 2.218 1.81 1.81 2.151 4.515 2.215 9.308h.722c.065-4.793.406-7.498 2.216-9.308 1.81-1.81 4.515-2.151 9.308-2.216v-.722c-4.793-.064-7.498-.405-9.308-2.215C12.853 7.699 12.53 4.937 12.474 0h-.717z" transform="translate(-153.000000, -569.000000) translate(153.000000, 569.000000)"/>
				</g>
			</g>
		</g>
	</symbol>
	<symbol id="zen_error" xmlns="http://www.w3.org/2000/svg" width="24" height="24" viewBox="0 0 24 24">
		<g fill-rule="evenodd">
			<g>
				<g>
					<path fill-rule="nonzero" d="M0 12C0 5.373 5.373 0 12 0s12 5.373 12 12-5.373 12-12 12S0 18.627 0 12z" transform="translate(-153.000000, -569.000000) translate(153.000000, 569.000000)"/>
					<path fill="#ffffff" d="M11.757 0c-.057 4.937-.38 7.7-2.218 9.539C7.699 11.378 4.937 11.7 0 11.757v.717c4.937.056 7.7.38 9.539 2.218 1.81 1.81 2.151 4.515 2.215 9.308h.722c.065-4.793.406-7.498 2.216-9.308 1.81-1.81 4.515-2.151 9.308-2.216v-.722c-4.793-.064-7.498-.405-9.308-2.215C12.853 7.699 12.53 4.937 12.474 0h-.717z" transform="translate(-153.000000, -569.000000) translate(153.000000, 569.000000)"/>
				</g>
			</g>
		</g>
	</symbol>
	<symbol id="tiktok_web" width="21px" height="22px" viewBox="0 0 21 22" version="1.1" xmlns="http://www.w3.org/2000/svg" xmlns:xlink="http://www.w3.org/1999/xlink">
		<title>Fill 1</title>
		<g id="Page-1" stroke-width="1" fill-rule="evenodd">
			<g id="Теги-и-счетчик-после-комментариев" transform="translate(-1040.000000, -1192.000000)">
				<path d="M1060.16667,1196.61715 C1060.04231,1196.59132 1059.95524,1196.56776 1059.86655,1196.55566 C1058.16235,1196.3228 1056.81301,1195.44867 1055.74632,1194.12028 C1055.28618,1193.54732 1054.912,1192.90102 1054.52258,1192.27274 C1054.40367,1192.08095 1054.29108,1191.9969 1054.0638,1192 C1053.12592,1192.01354 1052.18793,1192.00585 1051.24993,1192.00572 C1050.62233,1192.00572 1050.6222,1192.00572 1050.6222,1192.63111 C1050.6222,1197.28677 1050.62208,1201.94243 1050.62233,1206.59809 C1050.62245,1207.89573 1050.08725,1208.91577 1049.03034,1209.62218 C1047.84921,1210.41175 1046.309,1210.33048 1045.16898,1209.46971 C1044.05015,1208.62482 1043.54851,1207.15026 1043.91192,1205.77348 C1044.27731,1204.38864 1045.44755,1203.3657 1046.85894,1203.23188 C1047.33964,1203.18639 1047.82642,1203.20353 1048.31059,1203.20176 C1048.47483,1203.20113 1048.55286,1203.1564 1048.55187,1202.97066 C1048.54593,1201.84868 1048.54605,1200.72669 1048.55175,1199.6047 C1048.55261,1199.42073 1048.47718,1199.36919 1048.31121,1199.37272 C1047.73427,1199.38532 1047.15546,1199.36428 1046.5805,1199.40385 C1045.69837,1199.46446 1044.85091,1199.70098 1044.05783,1200.09526 C1039.89475,1202.16458 1038.67893,1207.60843 1041.61517,1211.25286 C1043.52065,1213.61793 1046.02907,1214.45879 1048.95206,1213.76423 C1052.17641,1212.99796 1054.37481,1210.04141 1054.38794,1206.58574 C1054.39847,1203.83849 1054.3903,1201.09123 1054.3903,1198.34398 C1054.3903,1198.22742 1054.3903,1198.11087 1054.3903,1197.90535 C1055.83253,1199.38041 1057.53178,1200.03931 1059.45694,1200.28326 C1059.69389,1199.05921 1059.92774,1197.85116 1060.16667,1196.61715 Z" id="Fill-1"></path>
			</g>
		</g>
	</symbol>
	<symbol id="tiktok_mobile" width="22px" height="24px" viewBox="0 0 22 24" version="1.1" xmlns="http://www.w3.org/2000/svg" xmlns:xlink="http://www.w3.org/1999/xlink">
		<title>Fill 1</title>
		<g id="Page-1" stroke-width="1" fill-rule="evenodd">
			<g id="Меню-2021-01" transform="translate(-214.000000, -567.000000)">
				<path d="M236,572.036895 C235.864339,572.008715 235.769349,571.983009 235.672602,571.969813 C233.813474,571.715778 232.341468,570.762187 231.177807,569.313036 C230.675833,568.687985 230.267633,567.982929 229.842813,567.297531 C229.713097,567.08831 229.590273,566.996621 229.342326,567 C228.319191,567.014767 227.295921,567.006381 226.27265,567.006244 C225.587993,567.006244 225.587858,567.006244 225.587858,567.68848 C225.587858,572.767382 225.587723,577.846283 225.587993,582.925185 C225.588128,584.340795 225.004271,585.45357 223.851285,586.224196 C222.562773,587.085549 220.882545,586.996884 219.638893,586.057864 C218.418346,585.136164 217.871107,583.527555 218.267551,582.025617 C218.666158,580.514882 219.942779,579.398945 221.482481,579.252958 C222.006885,579.203333 222.53791,579.222028 223.066098,579.220104 C223.245268,579.219416 223.330394,579.170617 223.329313,578.967994 C223.322827,577.74401 223.322962,576.520026 223.329178,575.296042 C223.330124,575.095343 223.247835,575.03912 223.066773,575.042969 C222.43738,575.056716 221.805961,575.033759 221.17873,575.076923 C220.216399,575.143044 219.291902,575.401065 218.426723,575.831191 C213.885177,578.088633 212.558831,584.027376 215.762005,588.003124 C217.840704,590.583196 220.577172,591.500497 223.765889,590.742792 C227.283354,589.90687 229.681614,586.68154 229.695937,582.911713 C229.707422,579.914712 229.698504,576.917711 229.698504,573.920709 C229.698504,573.793554 229.698504,573.6664 229.698504,573.442195 C231.271851,575.051355 233.125574,575.770157 235.225758,576.036288 C235.484244,574.700958 235.739352,573.383085 236,572.036895 Z" id="Fill-1"></path>
			</g>
		</g>
	</symbol>
	<svg id="email" width="24" height="24" viewBox="0 0 24 24" xmlns="http://www.w3.org/2000/svg">
		<g fill="none" fill-rule="evenodd">
			<path d="M0 0h24v24H0z"/>
			<path d="M22 6c0-1.1-.9-2-2-2H4c-1.1 0-2 .9-2 2v12c0 1.1.9 2 2 2h16c1.1 0 2-.9 2-2V6zm-2 0-8 5-8-5h16zm0 12H4V8l8 5 8-5v10z" fill="var(--fill-grey-color)" fill-rule="nonzero"/>
		</g>
	</svg>
	<symbol xmlns="http://www.w3.org/2000/svg" id="whatsAppShare" width="53" height="52" viewBox="0 0 53 52">
		<g fill="none" fill-rule="evenodd">
			<ellipse fill="#FFF" cx="26.5" cy="25" rx="26.5" ry="25"/>
			<path d="M26.5 47.2c12.426 0 22.5-9.274 22.5-21.7S38.926 3 26.5 3 4 13.074 4 25.5c0 5.75 2.156 10.824 5.704 14.617.823.88-2.173 6.349-1.21 7.083 1.118.853 6.219-3.056 7.498-2.421C19.129 46.335 22.705 47.2 26.5 47.2z" fill="#50CC5D"/>
			<path d="M4 25.057c0 5.161 2.017 10.127 5.68 13.983l.491.518L8.811 47l7.28-3.26.572.26c3.079 1.403 6.388 2.114 9.837 2.114 12.407 0 22.5-9.446 22.5-21.057C49 13.447 38.907 4 26.5 4S4 13.446 4 25.057zM5.777 51l1.999-10.941C4.046 35.888 2 30.616 2 25.137c0-3.134.652-6.175 1.94-9.037 1.239-2.757 3.011-5.231 5.268-7.355a24.552 24.552 0 0 1 7.784-4.938A25.6 25.6 0 0 1 26.5 2a25.6 25.6 0 0 1 9.508 1.807 24.552 24.552 0 0 1 7.784 4.938c2.256 2.124 4.03 4.598 5.269 7.355A21.896 21.896 0 0 1 51 25.137c0 3.135-.652 6.175-1.94 9.037-1.239 2.758-3.012 5.232-5.268 7.355a24.548 24.548 0 0 1-7.784 4.939 25.6 25.6 0 0 1-9.508 1.807c-3.52 0-6.91-.688-10.084-2.045L5.777 51z" stroke="#FFF" fill="#FFF"/>
			<path d="M38.698 30.847c-.689-.483-1.53-.706-2.274-1.1-1.046-.515-1.802-.844-2.348-1.052-.349-.128-1.142-.484-1.424-.257-.882.73-1.816 2.767-2.812 3.154-2.476-.491-4.769-2.2-6.566-3.943-.805-.774-2.268-2.927-2.595-3.517-.052-.603 1.017-1.404 1.252-1.86 1.243-1.411.299-2.281.138-2.874-.276-.608-.763-1.68-1.179-2.578-.354-.586-.433-1.44-1.087-1.77-2.727-1.412-4.281 1.406-4.924 2.877-3.852 9.332 19.33 27.121 24.046 14.876.239-1.07.146-1.463-.227-1.956" fill="#FFF"/>
		</g>
	</symbol>
	<symbol xmlns="http://www.w3.org/2000/svg" id="whatsAppShareFloatbar" width="40" height="40" viewBox="0 0 40 40" >
		<g fill="none" fill-rule="evenodd">
			<circle fill="#50CC5D" cx="20" cy="20" r="20"/>
			<path d="M20.5 30.139c5.833 0 10.561-4.542 10.561-10.629 0-6.086-4.728-11.02-10.561-11.02S9.939 13.424 9.939 19.51c0 2.816 1.012 5.302 2.677 7.16.387.43-1.02 3.11-.568 3.469.525.417 2.92-1.497 3.52-1.186a10.697 10.697 0 0 0 4.932 1.186z" fill="#50CC5D"/>
			<path d="M9.939 19.293c0 2.528.947 4.96 2.666 6.85l.23.253-.638 3.645 3.417-1.597.269.127a10.665 10.665 0 0 0 4.617 1.036c5.823 0 10.561-4.627 10.561-10.314S26.323 8.98 20.5 8.98c-5.823 0-10.561 4.626-10.561 10.313zM10.773 32l.938-5.359a11.214 11.214 0 0 1 .672-15.337 11.473 11.473 0 0 1 3.654-2.42A11.578 11.578 0 0 1 20.5 8c1.547 0 3.049.298 4.463.885a11.473 11.473 0 0 1 3.654 2.419 11.283 11.283 0 0 1 2.473 3.602c.604 1.402.91 2.891.91 4.427a11.12 11.12 0 0 1-.91 4.426 11.284 11.284 0 0 1-2.473 3.602 11.471 11.471 0 0 1-3.654 2.42 11.578 11.578 0 0 1-4.463.884c-1.652 0-3.243-.337-4.733-1.001L10.773 32z" stroke="#FFF" stroke-width=".5" fill="#FFF"/>
			<path d="M26.226 22.13c-.324-.237-.718-.347-1.068-.54-.49-.252-.846-.413-1.102-.515-.164-.063-.536-.237-.669-.126-.413.358-.852 1.356-1.32 1.545-1.161-.24-2.238-1.078-3.081-1.931-.378-.38-1.065-1.434-1.218-1.723-.025-.295.477-.688.587-.91.584-.692.14-1.118.065-1.409-.13-.297-.358-.822-.553-1.262-.167-.287-.204-.706-.51-.867-1.28-.692-2.01.689-2.312 1.409-1.808 4.571 9.074 13.284 11.287 7.286.112-.524.069-.716-.106-.958" fill="#FFF"/>
		</g>
	</symbol>
	<symbol xmlns="http://www.w3.org/2000/svg" id="whatsAppShareBottom" width="50" height="50" viewBox="0 0 50 50" >
		<g fill="none" fill-rule="evenodd">
			<circle fill="#50CC5D" cx="25" cy="25" r="25"/>
			<path d="M26 34.216c5.58 0 10.102-4.353 10.102-10.185 0-5.833-4.523-10.562-10.102-10.562-5.58 0-10.102 4.729-10.102 10.562 0 2.698.968 5.08 2.561 6.86.37.414-.976 2.98-.543 3.325.502.4 2.792-1.434 3.366-1.136A10.216 10.216 0 0 0 26 34.216z" fill="#50CC5D"/>
			<path d="M15.898 23.823c0 2.422.906 4.753 2.55 6.563l.22.243-.61 3.493 3.269-1.53.257.122c1.382.659 2.867.993 4.416.993 5.57 0 10.102-4.434 10.102-9.884S31.57 13.939 26 13.939s-10.102 4.434-10.102 9.884zM16.696 36l.897-5.136a10.758 10.758 0 0 1 .643-14.698 10.973 10.973 0 0 1 3.495-2.318A11.056 11.056 0 0 1 26 13c1.48 0 2.916.285 4.269.848a10.973 10.973 0 0 1 3.495 2.318 10.814 10.814 0 0 1 2.365 3.453c.578 1.343.871 2.77.871 4.241 0 1.472-.293 2.899-.87 4.242a10.814 10.814 0 0 1-2.366 3.453A11.056 11.056 0 0 1 26 34.72c-1.58 0-3.102-.323-4.527-.96L16.696 36z" stroke="#FFF" stroke-width=".5" fill="#FFF"/>
			<path d="M31.477 26.54c-.31-.226-.687-.33-1.021-.516-.47-.241-.81-.396-1.055-.494-.156-.06-.512-.227-.64-.12-.395.342-.814 1.299-1.261 1.48-1.112-.23-2.141-1.033-2.948-1.85-.362-.364-1.019-1.374-1.166-1.651-.023-.284.457-.66.563-.873.558-.663.134-1.071.062-1.35-.124-.285-.343-.788-.53-1.21-.159-.275-.194-.676-.488-.83-1.224-.663-1.922.66-2.21 1.35-1.73 4.38 8.678 12.73 10.796 6.983.107-.503.065-.687-.102-.918" fill="#FFF"/>
		</g>
	</symbol>
	<symbol id="icq" width="23px" height="25px" viewBox="0 0 23 25" version="1.1" xmlns="http://www.w3.org/2000/svg" xmlns:xlink="http://www.w3.org/1999/xlink">
		<g stroke="none" stroke-width="1" fill-rule="evenodd">
			<g>
				<path d="M18.5216641,13.1944444 C17.9829429,13.1126034 17.1698826,12.9914737 16.3575187,12.8648965 C15.7852362,12.7756948 15.2141375,12.6781706 14.6422728,12.5859426 C13.8824789,12.4633753 13.3260719,12.0287155 13.0270145,11.2628972 C12.727957,10.4968519 12.8155506,9.74805682 13.2796292,9.08513446 C14.0307891,8.01191446 14.7910008,6.94550374 15.5703605,5.89641889 C16.5302687,4.60446931 17.7893041,3.99798841 19.3086133,4.20718498 C21.0276888,4.44384569 22.2073468,5.49663782 22.7741982,7.27484648 C23.7035392,10.1904338 21.6622198,13.209144 18.5216641,13.1944444" id="Fill-4"></path>
				<path d="M10.1311423,17.1595461 C10.0836398,18.4385668 10.0513644,19.7787557 9.9797463,21.1167095 C9.88954982,22.8025253 8.48108579,24.4162207 6.74491272,24.8668246 C4.64715229,25.4113788 2.42611847,24.2405388 1.65493123,22.1836155 C0.840977161,20.0127002 1.71430937,17.6995555 3.77003154,16.5918955 C4.81056967,16.0312483 5.87566048,15.5143353 6.89230165,14.9118165 C8.53973536,13.9354336 10.3307695,15.2899274 10.1318709,16.9503372 C10.1260424,16.9992867 10.1311423,17.0495773 10.1311423,17.1595461" id="Fill-6"></path>
				<path d="M19.6176471,19.3899112 C19.6170745,21.7054744 18.1482675,23.3603741 16.1812942,23.5849895 C13.848622,23.8513379 12.1030003,22.0384645 11.9236576,20.0797805 C11.821176,18.9604908 11.6561464,17.8471006 11.5154489,16.7315254 C11.3386825,15.3295729 12.7105185,14.1970278 14.0083559,14.7083846 C15.1622754,15.1631507 16.3142626,15.6322647 17.431326,16.171735 C18.8657816,16.8645176 19.5460102,18.0941484 19.6176471,19.3899112" id="Fill-8"></path>
				<path d="M9.76297771,0.000102472404 C12.4578914,-0.0198022798 14.4117249,2.8635328 13.1229111,5.64331927 C12.6450577,6.67382927 12.1639034,7.70346112 11.6535328,8.71670082 C11.0302305,9.95416171 9.39700265,10.0749806 8.62017474,8.93697033 C7.94258361,7.94444035 7.27861733,6.9394699 6.65728143,5.90815492 C5.25869623,3.58683637 6.56984351,0.528749274 9.15344066,0.0465712873 C9.37080639,0.00602999053 9.59617848,0.0118843294 9.76297771,0.000102472404" id="Fill-10"></path>
				<path d="M0,10.8467426 C0.0596370712,9.45542512 0.681141612,8.47749373 1.93946894,7.94170689 C3.22545836,7.39416164 4.43797966,7.59554212 5.48385922,8.493998 C6.22798412,9.13334385 6.93440828,9.8133483 7.64455046,10.4876152 C8.43909174,11.242066 8.20232811,12.5813914 7.16306663,12.9206853 C6.02170827,13.2932711 4.85603404,13.6401442 3.67169534,13.8417371 C1.82844881,14.1555309 0.425936589,12.8474431 0.113102226,11.5693889 C0.0490035286,11.3074456 0.028703129,11.035798 0,10.8467426" id="Fill-12"></path>
			</g>
		</g>
	</symbol>
	<symbol id="zen-white-widget" width="100%" height="auto" viewBox="0 0 759 128" fill="none" xmlns="http://www.w3.org/2000/svg">
		<rect width="759" height="128" rx="32" fill="white"/>
		<mask id="mask0" mask-type="alpha" maskUnits="userSpaceOnUse" x="242" y="31" width="62" height="63">
			<path d="M242.085 62.2615C242.085 45.2756 255.855 31.5059 272.841 31.5059V31.5059C289.827 31.5059 303.597 45.2756 303.597 62.2615V62.2615C303.597 79.2474 289.827 93.0172 272.841 93.0172V93.0172C255.855 93.0172 242.085 79.2474 242.085 62.2615V62.2615Z" fill="black"/>
		</mask>
		<g mask="url(#mask0)">
			<path d="M242.085 62.2615C242.085 45.2756 255.855 31.5059 272.841 31.5059V31.5059C289.827 31.5059 303.597 45.2756 303.597 62.2615V62.2615C303.597 79.2474 289.827 93.0172 272.841 93.0172V93.0172C255.855 93.0172 242.085 79.2474 242.085 62.2615V62.2615Z" fill="black"/>
			<path fill-rule="evenodd" clip-rule="evenodd" d="M271.919 31.5059C271.764 43.9738 270.913 50.9814 266.237 55.6576C261.561 60.3339 254.553 61.185 242.085 61.3399V63.1832C254.553 63.3381 261.561 64.1892 266.237 68.8654C270.913 73.5417 271.764 80.5493 271.919 93.0172H273.763C273.917 80.5493 274.769 73.5417 279.445 68.8654C284.121 64.1891 291.129 63.3381 303.597 63.1832V61.3398C291.129 61.1849 284.121 60.3339 279.445 55.6576C274.768 50.9814 273.917 43.9738 273.763 31.5059H271.919Z" fill="white"/>
		</g>
			<path d="M62.7233 85.3285H70.7864V39.0156H59.0583C47.2635 39.0156 41.0662 45.0796 41.0662 54.009C41.0662 61.1392 44.4647 65.3374 50.5287 69.6688L40 85.3285H48.7295L60.4576 67.8029L56.3928 65.0708C51.4616 61.7389 49.0627 59.1401 49.0627 53.5426C49.0627 48.6114 52.5278 45.2795 59.1249 45.2795H62.7233V85.3285ZM218.188 85.9949C221.853 85.9949 224.452 85.3285 226.384 83.9292V77.4653C224.385 78.8647 221.986 79.731 218.655 79.731C212.99 79.731 210.658 75.3329 210.658 68.4027C210.658 61.1392 213.523 57.4075 218.721 57.4075C221.787 57.4075 224.785 58.4737 226.384 59.4733V52.7429C224.719 51.81 221.787 51.1436 217.855 51.1436C207.726 51.1436 202.462 58.4071 202.462 68.6026C202.462 79.7976 207.593 85.9949 218.188 85.9949ZM168.61 83.0629V76.5991C166.144 78.265 162.013 79.731 158.148 79.731C152.35 79.731 150.151 76.9989 149.818 71.4013H168.943V67.2032C168.943 55.5417 163.812 51.1436 155.882 51.1436C146.22 51.1436 141.622 58.5404 141.622 68.6692C141.622 80.3307 147.353 85.9949 157.482 85.9949C162.546 85.9949 166.278 84.6622 168.61 83.0629ZM95.9753 51.81V65.0708H85.38V51.81H77.4502V85.3285H85.38V71.3347H95.9753V85.3285H103.905V51.81H95.9753ZM139.689 79.0646H136.158V51.81H113.034V54.6754C113.034 62.8718 112.501 73.4671 109.703 79.0646H107.237V92.9918H114.567V85.3285H132.359V92.9918H139.689V79.0646ZM193.932 85.3285H202.928L190.2 67.2698L201.396 51.81H193.399L182.204 67.2698V51.81H174.274V85.3285H182.204V68.8691L193.932 85.3285ZM155.749 57.4075C159.681 57.4075 160.88 60.6727 160.88 64.8709V65.5373H149.818C150.018 60.2063 151.951 57.4075 155.749 57.4075ZM128.228 79.0646H117.033C119.232 74.0002 119.831 64.8709 119.831 59.0734V58.0739H128.228V79.0646Z" fill="black"/>
			<path d="M324.787 94.9909V85.3285H349.576V94.9909H357.106V79.0646H352.775V39.0156H324.454L323.655 62.0055C323.388 69.4689 322.588 75.5329 320.456 79.0646H317.257V94.9909H324.787ZM330.718 63.0717L331.318 45.2795H344.712V79.0646H328.053C329.452 75.9327 330.452 70.5351 330.718 63.0717Z" fill="black"/>
			<path d="M370.637 79.731C366.572 79.731 362.574 78.265 360.441 76.6657V83.1295C361.974 84.3956 365.839 85.9949 371.57 85.9949C380.033 85.9949 384.497 82.1966 384.497 75.4662C384.497 71.5346 382.032 68.8691 377.634 67.9362C381.765 66.6035 383.498 63.6714 383.498 59.9397C383.498 54.2756 379.033 51.1436 371.836 51.1436C366.639 51.1436 363.24 52.7429 361.308 53.9424V60.4062C363.44 59.0068 366.372 57.4075 370.704 57.4075C373.636 57.4075 375.501 58.8069 375.501 61.2725C375.501 63.8713 373.902 65.2707 370.637 65.2707H365.639V71.2681H370.637C374.702 71.2681 376.301 72.4675 376.301 75.3996C376.301 78.0651 374.369 79.731 370.637 79.731Z" fill="black"/>
			<path d="M414.501 83.0629V76.5991C412.035 78.265 407.904 79.731 404.039 79.731C398.241 79.731 396.042 76.9989 395.709 71.4013H414.834V67.2032C414.834 55.5417 409.703 51.1436 401.773 51.1436C392.111 51.1436 387.513 58.5404 387.513 68.6692C387.513 80.3307 393.244 85.9949 403.372 85.9949C408.437 85.9949 412.169 84.6622 414.501 83.0629ZM401.64 57.4075C405.572 57.4075 406.771 60.6727 406.771 64.8709V65.5373H395.709C395.909 60.2063 397.842 57.4075 401.64 57.4075Z" fill="black"/>
			<path d="M438.672 51.81V65.0708H428.077V51.81H420.147V85.3285H428.077V71.3347H438.672V85.3285H446.602V51.81H438.672Z" fill="black"/>
			<rect x="476" y="32" width="243" height="64" rx="16" fill="#FF5317"/>
			<rect x="476" y="32" width="243" height="64" rx="16" fill="#FF5317"/>
			<path d="M545.172 54.792H558.636V72H555.708V57.312H548.076V72H545.172V54.792Z" fill="white"/>
			<path d="M567.417 72.24C566.537 72.24 565.721 72.096 564.969 71.808C564.217 71.52 563.561 71.104 563.001 70.56C562.457 70 562.025 69.32 561.705 68.52C561.401 67.72 561.249 66.8 561.249 65.76C561.249 64.72 561.401 63.8 561.705 63C562.025 62.2 562.457 61.528 563.001 60.984C563.561 60.424 564.217 60.008 564.969 59.736C565.721 59.448 566.537 59.304 567.417 59.304C568.297 59.304 569.113 59.448 569.865 59.736C570.617 60.008 571.273 60.424 571.833 60.984C572.393 61.528 572.833 62.2 573.153 63C573.473 63.8 573.633 64.72 573.633 65.76C573.633 66.8 573.473 67.72 573.153 68.52C572.833 69.32 572.393 70 571.833 70.56C571.273 71.104 570.617 71.52 569.865 71.808C569.113 72.096 568.297 72.24 567.417 72.24ZM567.417 69.912C568.377 69.912 569.169 69.576 569.793 68.904C570.433 68.232 570.753 67.184 570.753 65.76C570.753 64.352 570.433 63.312 569.793 62.64C569.169 61.952 568.377 61.608 567.417 61.608C566.473 61.608 565.681 61.952 565.041 62.64C564.417 63.312 564.105 64.352 564.105 65.76C564.105 67.184 564.417 68.232 565.041 68.904C565.681 69.576 566.473 69.912 567.417 69.912Z" fill="white"/>
			<path d="M575.462 69.744C575.83 69.424 576.118 68.984 576.326 68.424C576.55 67.864 576.726 67.168 576.854 66.336C576.982 65.488 577.078 64.504 577.142 63.384C577.206 62.264 577.262 60.984 577.31 59.544H586.43V69.744H588.302V75.552H585.878L585.662 72H577.07L576.854 75.552H574.406V69.744H575.462ZM583.646 69.744V61.8H579.71C579.63 63.768 579.494 65.4 579.302 66.696C579.126 67.976 578.83 68.992 578.414 69.744H583.646Z" fill="white"/>
			<path d="M590.4 59.544H600.984V72H598.2V61.8H593.184V72H590.4V59.544Z" fill="white"/>
			<path d="M606.871 68.232L612.631 59.544H615.367V72H612.607V63.36L606.895 72H604.111V59.544H606.871V68.232Z" fill="white"/>
			<path d="M624.238 72.24C623.23 72.24 622.326 72.096 621.526 71.808C620.726 71.504 620.046 71.08 619.486 70.536C618.926 69.976 618.494 69.296 618.19 68.496C617.886 67.696 617.734 66.784 617.734 65.76C617.734 64.752 617.886 63.848 618.19 63.048C618.494 62.248 618.926 61.576 619.486 61.032C620.046 60.472 620.734 60.048 621.55 59.76C622.366 59.456 623.278 59.304 624.286 59.304C625.15 59.304 625.902 59.4 626.542 59.592C627.198 59.784 627.718 60.024 628.102 60.312V62.616C627.606 62.296 627.062 62.048 626.47 61.872C625.894 61.696 625.222 61.608 624.454 61.608C621.878 61.608 620.59 62.992 620.59 65.76C620.59 68.528 621.854 69.912 624.382 69.912C625.198 69.912 625.894 69.824 626.47 69.648C627.062 69.456 627.606 69.216 628.102 68.928V71.232C627.686 71.504 627.166 71.744 626.542 71.952C625.918 72.144 625.15 72.24 624.238 72.24Z" fill="white"/>
			<path d="M637.842 69.816C637.714 70.104 637.538 70.392 637.314 70.68C637.106 70.968 636.842 71.232 636.522 71.472C636.218 71.696 635.85 71.88 635.418 72.024C634.986 72.168 634.482 72.24 633.906 72.24C633.362 72.24 632.858 72.16 632.394 72C631.93 71.856 631.522 71.632 631.17 71.328C630.834 71.024 630.562 70.648 630.354 70.2C630.162 69.736 630.066 69.208 630.066 68.616C630.066 67.256 630.57 66.24 631.578 65.568C632.586 64.88 634.01 64.536 635.85 64.536H637.746V63.768C637.746 62.952 637.538 62.392 637.122 62.088C636.706 61.768 636.018 61.608 635.058 61.608C634.242 61.608 633.474 61.728 632.754 61.968C632.05 62.192 631.426 62.456 630.882 62.76V60.432C631.378 60.16 632.034 59.904 632.85 59.664C633.666 59.424 634.554 59.304 635.514 59.304C637.114 59.304 638.346 59.64 639.21 60.312C640.09 60.968 640.53 62.024 640.53 63.48V69.984C640.53 70.128 640.53 70.296 640.53 70.488C640.546 70.664 640.554 70.848 640.554 71.04C640.57 71.232 640.586 71.416 640.602 71.592C640.618 71.752 640.634 71.888 640.65 72H638.082C638.034 71.776 637.986 71.464 637.938 71.064C637.906 70.664 637.882 70.304 637.866 69.984L637.842 69.816ZM634.674 70.08C635.266 70.08 635.754 69.96 636.138 69.72C636.538 69.464 636.858 69.176 637.098 68.856C637.338 68.52 637.506 68.192 637.602 67.872C637.698 67.552 637.746 67.328 637.746 67.2V66.36H636.018C634.914 66.36 634.106 66.536 633.594 66.888C633.082 67.224 632.826 67.704 632.826 68.328C632.826 68.872 632.978 69.304 633.282 69.624C633.602 69.928 634.066 70.08 634.674 70.08Z" fill="white"/>
			<path d="M648.937 61.8V72H646.153V61.8H642.385V59.544H652.777V61.8H648.937Z" fill="white"/>
			<path d="M664.932 67.704C664.932 68.424 664.796 69.056 664.524 69.6C664.268 70.144 663.908 70.592 663.444 70.944C662.98 71.296 662.428 71.56 661.788 71.736C661.148 71.912 660.444 72 659.676 72H654.876V59.544H657.66V63.576H659.748C661.38 63.576 662.652 63.912 663.564 64.584C664.476 65.256 664.932 66.296 664.932 67.704ZM657.66 65.784V69.816H659.46C660.228 69.816 660.852 69.664 661.332 69.36C661.812 69.04 662.052 68.52 662.052 67.8C662.052 67.08 661.836 66.568 661.404 66.264C660.972 65.944 660.348 65.784 659.532 65.784H657.66Z" fill="white"/>
			<path d="M672.941 72.24C671.933 72.24 671.029 72.096 670.229 71.808C669.429 71.504 668.749 71.08 668.189 70.536C667.629 69.976 667.197 69.296 666.893 68.496C666.589 67.696 666.437 66.784 666.437 65.76C666.437 64.752 666.589 63.848 666.893 63.048C667.197 62.248 667.629 61.576 668.189 61.032C668.749 60.472 669.437 60.048 670.253 59.76C671.069 59.456 671.981 59.304 672.989 59.304C673.853 59.304 674.605 59.4 675.245 59.592C675.901 59.784 676.421 60.024 676.805 60.312V62.616C676.309 62.296 675.765 62.048 675.173 61.872C674.597 61.696 673.925 61.608 673.157 61.608C670.581 61.608 669.293 62.992 669.293 65.76C669.293 68.528 670.557 69.912 673.085 69.912C673.901 69.912 674.597 69.824 675.173 69.648C675.765 69.456 676.309 69.216 676.805 68.928V71.232C676.389 71.504 675.869 71.744 675.245 71.952C674.621 72.144 673.853 72.24 672.941 72.24Z" fill="white"/>
			<path d="M679.225 63.624C679.225 62.952 679.353 62.36 679.609 61.848C679.865 61.336 680.217 60.912 680.665 60.576C681.129 60.224 681.681 59.968 682.321 59.808C682.977 59.632 683.697 59.544 684.481 59.544H689.113V72H686.329V67.776H684.553L681.601 72H678.481L681.913 67.176C681.049 66.92 680.385 66.504 679.921 65.928C679.457 65.352 679.225 64.584 679.225 63.624ZM686.329 65.568V61.752H684.697C683.929 61.752 683.297 61.896 682.801 62.184C682.321 62.472 682.081 62.952 682.081 63.624C682.081 64.312 682.297 64.808 682.729 65.112C683.177 65.416 683.809 65.568 684.625 65.568H686.329Z" fill="white"/>
		<g clip-path="url(#clip0)">
			<path d="M532.333 49.3333C532.333 48.597 531.736 48 531 48C530.264 48 529.667 48.597 529.667 49.3333V52.6667L526.333 52.6667C525.597 52.6667 525 53.2636 525 54C525 54.7364 525.597 55.3333 526.333 55.3333L529.667 55.3333V58.6667C529.667 59.403 530.264 60 531 60C531.736 60 532.333 59.403 532.333 58.6667V55.3333L535.667 55.3333C536.403 55.3333 537 54.7364 537 54C537 53.2636 536.403 52.6667 535.667 52.6667L532.333 52.6667V49.3333Z" fill="white"/>
			<path fill-rule="evenodd" clip-rule="evenodd" d="M511.729 54.5802C512.857 53.0736 514.57 52.1667 516.75 52.1667C518.93 52.1667 520.643 53.0736 521.771 54.5802C522.863 56.0387 523.333 57.9528 523.333 59.9167C523.333 61.8805 522.863 63.7946 521.771 65.2531C520.643 66.7597 518.93 67.6667 516.75 67.6667C514.57 67.6667 512.857 66.7597 511.729 65.2531C510.637 63.7946 510.167 61.8805 510.167 59.9167C510.167 57.9528 510.637 56.0387 511.729 54.5802ZM513.863 56.1786C513.217 57.0425 512.833 58.3367 512.833 59.9167C512.833 61.4966 513.217 62.7909 513.863 63.6547C514.474 64.4705 515.387 65 516.75 65C518.114 65 519.026 64.4705 519.637 63.6547C520.284 62.7909 520.667 61.4966 520.667 59.9167C520.667 58.3367 520.284 57.0425 519.637 56.1786C519.026 55.3628 518.114 54.8333 516.75 54.8333C515.387 54.8333 514.474 55.3628 513.863 56.1786Z" fill="white"/>
			<path d="M509.144 75.7693C509.888 74.5289 510.818 73.6991 511.999 73.1612C513.205 72.6114 514.748 72.3333 516.75 72.3333C518.753 72.3333 520.295 72.6114 521.502 73.1612C522.682 73.6991 523.613 74.5289 524.357 75.7693C524.736 76.4008 525.555 76.6055 526.186 76.2267C526.818 75.8478 527.022 75.0288 526.644 74.3973C525.638 72.7211 524.307 71.5092 522.608 70.7346C520.934 69.972 518.976 69.6667 516.75 69.6667C514.524 69.6667 512.567 69.972 510.893 70.7346C509.193 71.5092 507.863 72.7211 506.857 74.3973C506.478 75.0288 506.683 75.8478 507.314 76.2267C507.946 76.6055 508.765 76.4008 509.144 75.7693Z" fill="white"/>
		</g>
		<defs>
			<clipPath id="clip0">
				<rect width="32" height="32" fill="white" transform="translate(505 48)"/>
			</clipPath>
		</defs>
	</symbol>
</svg>
